<svg xmlns="http://www.w3.org/2000/svg" width="122" height="116" viewBox="0 0 122 116">
  <g id="shopping" transform="translate(-939 -482)">
    <path id="_17676289951537184110" data-name="17676289951537184110" d="M79.795,75.194,75.249,22.017a2.736,2.736,0,0,0-2.67-2.565H63.205V15.011C63.205,6.734,56.8,0,48.917,0S34.63,6.734,34.63,15.011v4.441h-9.38a2.736,2.736,0,0,0-2.67,2.565L18.016,75.4a2.906,2.906,0,0,0,.692,2.152,2.625,2.625,0,0,0,1.979.916H77.15a2.751,2.751,0,0,0,2.681-2.817A3.011,3.011,0,0,0,79.795,75.194Zm-39.8-60.183a8.937,8.937,0,1,1,17.851,0v4.441H39.992ZM23.619,72.839,27.7,25.085H34.63v5.037a2.684,2.684,0,1,0,5.362,0V25.085H57.843v5.037a2.684,2.684,0,1,0,5.362,0V25.085h6.922L74.21,72.839H23.619Z" transform="translate(951.082 500.764)" fill="#ba994c"/>
    <g id="Ellipse_2" data-name="Ellipse 2" transform="translate(939 482)" fill="none" stroke="#002f61" stroke-width="6" opacity="0.75">
      <ellipse cx="61" cy="58" rx="61" ry="58" stroke="none"/>
      <ellipse cx="61" cy="58" rx="58" ry="55" fill="none"/>
    </g>
  </g>
</svg>
